<svg xmlns="http://www.w3.org/2000/svg" width="600" height="420" viewBox="0 0 600 420">
    <rect width="600" height="420" fill="#fdfdfb" stroke="#ccc"/>
    <text x="40" y="36" font-size="20" font-family="sans-serif" font-weight="bold" fill="#111">BILL OF LADING</text>
    <text x="40" y="70" font-size="16" font-family="monospace" transform="rotate(-6 40 70)" fill="#222">Load #ps6tjw</text>
    <text x="77" y="96" font-size="16" font-family="monospace" transform="rotate(5 77 96)" fill="#222">Shipper: [illegible]</text>
    <text x="74" y="122" font-size="16" font-family="monospace" transform="rotate(-6 74 122)" fill="#222">Consignee: [illegible]</text>
    <text x="71" y="148" font-size="16" font-family="monospace" transform="rotate(5 71 148)" fill="#222">Weight: [illegible]</text>
    <text x="68" y="174" font-size="16" font-family="monospace" transform="rotate(-6 68 174)" fill="#222">Pieces: [illegible]</text>
    <rect x="208" y="36" width="8.308139187311472" height="4.314294202388201" fill="#999" opacity="0.5"/>
    <rect x="333" y="301" width="12.900323490410138" height="2.833582548590637" fill="#999" opacity="0.5"/>
    <rect x="332" y="138" width="12.618588427496853" height="4.920400767183575" fill="#999" opacity="0.5"/>
    <rect x="387" y="11" width="12.922004251204097" height="2.531687059780332" fill="#999" opacity="0.5"/>
    <rect x="317" y="266" width="6.699347491862142" height="4.662237183869115" fill="#999" opacity="0.5"/>
    <rect x="32" y="256" width="11.723227489153128" height="5.853776828848049" fill="#999" opacity="0.5"/>
    <rect x="158" y="85" width="15.404875644117034" height="4.155928731722624" fill="#999" opacity="0.5"/>
    <rect x="455" y="290" width="8.53801739183991" height="5.085270535515992" fill="#999" opacity="0.5"/>
    <rect x="392" y="353" width="12.22265667457253" height="3.9880228295615967" fill="#999" opacity="0.5"/>
    <rect x="475" y="8" width="7.682562788862796" height="2.8358064217395578" fill="#999" opacity="0.5"/>
    <rect x="95" y="284" width="7.226568872428292" height="3.7026976571663037" fill="#999" opacity="0.5"/>
    <rect x="354" y="171" width="10.090010795440886" height="4.004274658326064" fill="#999" opacity="0.5"/>
    <rect x="74" y="50" width="11.65470166967157" height="4.518101245210763" fill="#999" opacity="0.5"/>
    <rect x="498" y="87" width="12.476380210793543" height="3.2817141084823835" fill="#999" opacity="0.5"/>
    <rect x="164" y="201" width="10.034543838233006" height="4.166300971676801" fill="#999" opacity="0.5"/>
    <rect x="554" y="17" width="11.724345914920349" height="2.5893591574414816" fill="#999" opacity="0.5"/>
    <rect x="128" y="13" width="9.566688788902526" height="3.236919933067071" fill="#999" opacity="0.5"/>
    <rect x="473" y="29" width="10.13447336355689" height="2.428032579028629" fill="#999" opacity="0.5"/>
    <rect x="457" y="132" width="11.405896913695933" height="4.694090125733073" fill="#999" opacity="0.5"/>
    <rect x="338" y="148" width="13.774892142885445" height="5.033256244958764" fill="#999" opacity="0.5"/>
    <rect x="498" y="210" width="11.519963369060324" height="3.529085817401728" fill="#999" opacity="0.5"/>
    <rect x="250" y="20" width="12.748032364006427" height="5.70456614488608" fill="#999" opacity="0.5"/>
    <rect x="74" y="77" width="15.907535238566105" height="2.6354360112852917" fill="#999" opacity="0.5"/>
    <rect x="120" y="341" width="8.277318133638483" height="5.658782581964875" fill="#999" opacity="0.5"/>
    <rect x="107" y="7" width="10.158963402752747" height="4.555995370117557" fill="#999" opacity="0.5"/>
    <rect x="266" y="126" width="11.69699494798409" height="3.14206721995797" fill="#999" opacity="0.5"/>
    <rect x="342" y="347" width="11.475430458230871" height="4.516013035442337" fill="#999" opacity="0.5"/>
    <rect x="491" y="200" width="10.130194261151345" height="5.229380670562661" fill="#999" opacity="0.5"/>
    <rect x="310" y="228" width="7.077770068387734" height="5.0189682308594" fill="#999" opacity="0.5"/>
    <rect x="299" y="128" width="7.8916367670873155" height="5.303339375892553" fill="#999" opacity="0.5"/>
    <rect x="238" y="158" width="12.735289891556384" height="5.565922800518352" fill="#999" opacity="0.5"/>
    <rect x="434" y="51" width="6.005723111839922" height="5.725788498047251" fill="#999" opacity="0.5"/>
    <rect x="344" y="120" width="10.44850174712565" height="4.007885280757614" fill="#999" opacity="0.5"/>
    <rect x="118" y="47" width="14.324803109443776" height="3.7790092137202724" fill="#999" opacity="0.5"/>
    <rect x="540" y="139" width="11.824160866045876" height="2.561769924113221" fill="#999" opacity="0.5"/>
    <rect x="323" y="366" width="8.80177251656087" height="2.897547499647122" fill="#999" opacity="0.5"/>
    <rect x="341" y="302" width="6.278834477317255" height="2.8792123576402435" fill="#999" opacity="0.5"/>
    <rect x="25" y="301" width="12.800360003034253" height="3.7086372529963003" fill="#999" opacity="0.5"/>
    <rect x="135" y="354" width="6.2821431496716205" height="3.060189087558492" fill="#999" opacity="0.5"/>
    <rect x="210" y="346" width="6.837836993497966" height="4.016477341636868" fill="#999" opacity="0.5"/>
  </svg>